HIERARCHY
ROOT Hips
{
  OFFSET 31.0223 45.8562 8.46705
  CHANNELS 6 Xposition Yposition Zposition Zrotation Xrotation Yrotation
  JOINT ToSpine
  {
    OFFSET -0.0105055 1.38907 -7.13956
    CHANNELS 3 Zrotation Xrotation Yrotation
    JOINT Spine
    {
      OFFSET 0.0105055 10 1
      CHANNELS 3 Zrotation Xrotation Yrotation
      JOINT Spine1
      {
        OFFSET 0 12 1.60637
        CHANNELS 3 Zrotation Xrotation Yrotation
        JOINT Neck
        {
          OFFSET 0 27 2.26658
          CHANNELS 3 Zrotation Xrotation Yrotation
          JOINT Head
          {
            OFFSET 0 9 2.12705
            CHANNELS 3 Zrotation Xrotation Yrotation
            End Site
            {
              OFFSET 0 11 2
            }
          }
        }
        JOINT LeftShoulder
        {
          OFFSET 8 19.6109 2.86452
          CHANNELS 3 Zrotation Xrotation Yrotation
          JOINT LeftArm
          {
            OFFSET 12 1 0.681055
            CHANNELS 3 Zrotation Xrotation Yrotation
            JOINT LeftForeArm
            {
              OFFSET 19 0 -1.52608
              CHANNELS 3 Zrotation Xrotation Yrotation
              JOINT LeftHand
              {
                OFFSET 23 0 0
                CHANNELS 3 Zrotation Xrotation Yrotation
                End Site
                {
                  OFFSET 10 0 0
                }
              }
            }
          }
        }
        JOINT RightShoulder
        {
          OFFSET -8 19.6109 2.86452
          CHANNELS 3 Zrotation Xrotation Yrotation
          JOINT RightArm
          {
            OFFSET -12 1 0.681055
            CHANNELS 3 Zrotation Xrotation Yrotation
            JOINT RightForeArm
            {
              OFFSET -19 0 -1.52608
              CHANNELS 3 Zrotation Xrotation Yrotation
              JOINT RightHand
              {
                OFFSET -23 0 0
                CHANNELS 3 Zrotation Xrotation Yrotation
                End Site
                {
                  OFFSET -10 0 0
                }
              }
            }
          }
        }
      }
    }
  }
  JOINT LeftUpLeg
  {
    OFFSET 9 -7.17245 0
    CHANNELS 3 Zrotation Xrotation Yrotation
    JOINT LeftLeg
    {
      OFFSET 0 -44.1113 0
      CHANNELS 3 Zrotation Xrotation Yrotation
      JOINT LeftFoot
      {
        OFFSET 0 -36.1829 0
        CHANNELS 3 Zrotation Xrotation Yrotation
        JOINT LeftToeBase
        {
          OFFSET 0 -4.84184 13
          CHANNELS 3 Zrotation Xrotation Yrotation
          End Site
          {
            OFFSET 0 1 6
          }
        }
      }
    }
  }
  JOINT RightUpLeg
  {
    OFFSET -9 -7.17245 0
    CHANNELS 3 Zrotation Xrotation Yrotation
    JOINT RightLeg
    {
      OFFSET 0 -44.0551 0
      CHANNELS 3 Zrotation Xrotation Yrotation
      JOINT RightFoot
      {
        OFFSET 0 -36.1469 0
        CHANNELS 3 Zrotation Xrotation Yrotation
        JOINT RightToeBase
        {
          OFFSET 0 -4.92256 13
          CHANNELS 3 Zrotation Xrotation Yrotation
          End Site
          {
            OFFSET 0 1 6
          }
        }
      }
    }
  }
}
MOTION
Frames:	16
Frame Time:	0.0333333
31.0223 45.8562 8.46705 -1.15432 5.61018 -4.0286 0 0 0 9.9001 62.1155 -4.1795 -6.65989 -4.96801 3.38323 5.0158 -34.6482 0.951929 -2.98793 -5.19994 1.2936 -17.5922 4.8418 -16.2845 -15.9073 15.3649 -81.8734 -15.4398 22.3049 4.83417 -1.82032 -0.0048165 0.531615 18.13 6.66729 22.9973 14.8892 14.0439 60.5646 6.99854 17.5151 1.71406 -8.62915 -0.0541905 0.718257 94.4334 -48.0054 87.3296 180 43.6297 163.033 14.6702 -45.6725 6.20559 0.967589 -4.9522 -3.25745 -87.9973 -54.7899 -88.1712 180 44.2182 -166.585 -29.247 -41.8736 -11.4016 3.88447 -14.6018 -7.2135 
31.0604 45.8864 8.46838 -1.50066 5.89266 -4.14842 0 0 0 9.58918 62.0048 -3.71161 -6.50897 -5.07111 3.6015 4.86729 -34.5892 0.99189 -2.65466 -5.73379 1.26432 -17.4781 4.80299 -16.2128 -16.0121 15.325 -82.056 -15.4286 22.4432 4.83898 -1.80183 -0.00481651 0.526209 18.1938 6.68018 22.9859 14.4783 14.0634 60.7055 7.11417 17.371 1.57828 -8.50556 -0.087733 1.17977 95.089 -47.7147 87.7206 -180 43.5194 162.655 14.497 -46.0622 6.18994 0.868502 -3.82858 -2.98791 -87.8613 -55.0014 -88.5589 180 44.3603 -166.608 -29.2428 -41.9207 -11.4138 3.86649 -14.5224 -7.46456 
30.9291 45.8819 8.42935 -1.89786 6.49481 -4.672 0 0 0 8.44833 61.5965 -2.50565 -6.16304 -5.23891 4.03063 4.17908 -34.3371 0.898652 -2.32789 -5.74296 1.14784 -17.9147 4.85609 -16.1054 -15.7724 15.2966 -81.9654 -15.4454 22.586 4.844 -1.77031 -0.00481651 0.521988 17.9165 6.63925 23.0946 15.1664 13.9206 60.4597 6.90208 17.5223 1.73264 -8.3068 -0.0813076 1.11963 96.7288 -46.8964 88.5682 -180 43.5997 161.364 13.59 -46.2875 5.83124 0.612459 -1.9446 -2.18093 -88.1793 -55.9727 -89.7713 180 44.4774 -167.059 -28.9398 -41.9108 -11.2882 3.85161 -14.4461 -7.30943 
30.9712 45.8953 8.4056 -2.11112 6.4233 -4.8074 0 0 0 8.65115 61.6762 -2.5278 -6.31472 -5.13411 4.15874 4.39083 -34.2813 0.900021 -2.3417 -5.95388 1.14637 -17.4834 4.83329 -16.331 -15.9721 15.2361 -81.9579 -15.4106 22.4833 4.84039 -1.73656 -0.00481654 0.481157 17.939 6.63381 23.0518 15.1079 13.7729 60.5064 6.94811 16.2242 1.72064 -7.83246 -0.110557 1.61485 96.6426 -46.8187 88.4997 180 43.6579 163.118 15.0956 -44.8441 6.25879 1.07101 -6.31958 -3.52846 -87.8682 -56.1891 -89.6251 180 44.593 -167.075 -29.1473 -41.6013 -11.2809 3.91431 -14.7522 -7.3972 
31.0279 45.9124 8.43926 -1.97324 6.54995 -4.65378 0 0 0 8.67013 61.4738 -2.67548 -6.15412 -5.03427 3.9796 4.61915 -34.5791 1.07783 -2.67362 -5.56004 1.35457 -17.5765 4.81612 -16.193 -16.1243 15.1438 -81.8899 -15.2678 22.7354 4.84928 -1.72973 -0.00481652 0.517412 18.028 6.69676 23.2089 14.6186 13.9261 60.5694 6.96399 17.3135 1.76332 -8.53738 -0.0507956 0.680526 96.5177 -46.9344 88.6042 -180 43.5137 161.889 14.0936 -46.4269 6.0694 0.673683 -2.4307 -2.35616 -88.205 -55.8732 -89.8261 -180 44.5845 -166.989 -29.0002 -41.6727 -11.2428 3.89192 -14.6415 -7.33137 
30.9844 45.8988 8.38337 -1.93361 6.51349 -4.7908 0 0 0 8.41642 61.5753 -2.43612 -6.17581 -5.04146 4.08883 4.76535 -34.8729 0.998774 -2.90802 -4.91966 1.32182 -17.5305 4.81933 -16.2399 -16.0654 15.1491 -81.9988 -15.3011 22.7526 4.8499 -1.74366 -0.00481651 0.519892 17.8019 6.5449 22.8388 14.7043 14.084 61.0803 7.16768 17.1778 1.54133 -8.74197 -0.0580062 0.758871 96.4819 -46.9799 88.6323 180 43.7213 163.859 14.7673 -44.7143 6.10181 1.26443 -7.20305 -4.43199 -88.3468 -56.1217 -89.9542 -180 44.588 -167.033 -28.9174 -41.5877 -11.1847 3.8851 -14.6107 -7.398 
30.9945 45.8697 8.41645 -1.98333 6.3801 -4.87561 0 0 0 8.03917 61.5661 -2.15822 -5.9289 -4.89937 4.09934 4.49246 -34.5145 1.09765 -2.52874 -5.36153 1.35668 -17.8688 4.84997 -16.1143 -15.6431 15.1038 -82.0315 -15.4373 22.63 4.84555 -1.80348 -0.00481654 0.486608 17.8495 6.63228 23.1325 14.2422 14.1371 60.9711 7.26464 16.9082 1.51245 -8.63769 -0.0641302 0.849153 96.3711 -46.7326 88.4719 -180 43.6331 163.521 15.152 -44.6731 6.25592 1.1706 -7.24191 -3.89791 -88.0286 -56.2024 -89.6279 180 44.5415 -167.172 -29.4158 -41.6093 -11.3912 3.89489 -14.6644 -7.57577 
30.988 45.8291 8.4228 -1.96054 6.50758 -4.56759 0 0 0 8.82539 61.4304 -2.68081 -6.14218 -4.96382 4.07138 4.2042 -34.4665 0.876865 -2.3023 -5.39114 1.12405 -17.5154 4.83324 -16.307 -16.0992 15.1924 -82.1401 -15.3625 22.8707 4.85411 -1.73559 -0.00481653 0.500704 17.5182 6.46982 22.8191 16.0242 13.6122 60.5127 6.6676 18.1363 1.74528 -8.37463 -0.0923329 1.26111 96.8499 -47.0216 88.7515 -180 43.5015 161.465 13.8654 -46.2455 5.94434 0.518898 -2.4117 -1.65273 -88.2992 -55.8871 -89.8325 180 44.4185 -167.049 -28.9204 -41.8946 -11.2757 3.84207 -14.4016 -7.38018 
30.9843 45.7658 8.46133 -1.87912 6.40548 -4.73765 0 0 0 8.71186 61.4207 -2.64596 -6.33031 -4.91634 4.05837 4.61272 -34.5119 0.889235 -2.59881 -5.22612 1.18165 -17.6512 4.82333 -16.1671 -15.5224 15.2505 -82.1575 -15.4963 22.4989 4.84093 -1.8122 -0.0048165 0.536154 17.7627 6.53446 22.8359 14.817 14.0977 61.0055 7.19502 17.1519 1.44717 -8.81356 -0.0789921 1.02498 96.3966 -46.8767 88.5888 -180 43.473 163.465 15.1013 -44.9768 6.28172 1.11901 -6.7322 -3.70883 -88.3768 -56.0957 -89.793 180 44.3745 -167.34 -29.4321 -41.6075 -11.3972 3.97968 -15.0718 -7.45597 
30.9199 45.6906 8.4761 -1.8042 6.36433 -4.70097 0 0 0 8.47388 61.5862 -2.50438 -6.21238 -5.34263 4.04993 4.47437 -34.1965 0.848645 -2.63008 -5.30991 1.16649 -17.7676 4.84651 -16.1743 -15.7573 15.4282 -81.9505 -15.4677 22.7737 4.85065 -1.96275 -0.00481655 0.475962 17.8545 6.55691 22.835 14.9289 14.3041 60.6646 7.00224 17.5469 1.70537 -8.57706 -0.0504828 0.673195 96.4959 -46.8203 88.4746 -180 43.3656 162.432 14.2519 -45.754 6.03911 0.906535 -4.53703 -3.03334 -88.3892 -56.0573 -89.728 180 44.1828 -167.359 -29.3292 -41.9448 -11.456 3.89123 -14.6404 -7.39717 
30.9292 45.6298 8.51814 -1.63294 6.32783 -4.80522 0 0 0 7.8085 61.4586 -2.06663 -5.95982 -5.21497 4.03163 4.28799 -33.988 0.901254 -2.2517 -5.94785 1.14728 -17.6834 4.81422 -16.107 -15.9321 15.4443 -81.9735 -15.4182 22.7295 4.84908 -1.83777 -0.0048165 0.537927 17.627 6.50505 22.852 15.2445 14.2872 60.7454 7.05521 17.322 1.57427 -8.48734 -0.0574207 0.773833 96.2486 -46.6791 88.4259 -180 43.3358 162.802 14.9151 -45.16 6.23155 1.05253 -6.28122 -3.43669 -88.7528 -56.1074 -89.8266 -180 44.0754 -167.316 -29.4978 -41.699 -11.451 3.99782 -15.162 -7.49577 
30.9103 45.6221 8.49167 -1.76834 6.21525 -4.78488 0 0 0 8.00484 61.5114 -2.12497 -6.0554 -5.14565 4.1128 4.55635 -34.3435 0.874186 -2.42851 -5.59151 1.13949 -17.6241 4.84257 -16.264 -15.7542 15.4503 -82.0058 -15.5535 22.5314 4.84208 -1.80179 -0.00481652 0.515387 17.8789 6.54843 22.7787 14.7346 14.4011 60.7406 7.14886 16.9989 1.6025 -8.46022 -0.0748177 1.01152 96.3151 -46.788 88.2983 -180 43.2842 162.936 14.9398 -45.209 6.24948 0.97135 -6.10029 -3.04007 -88.425 -56.1279 -89.5394 -180 44.0471 -167.158 -29.1326 -41.8768 -11.3562 3.94581 -14.9044 -7.39057 
31.003 45.6447 8.5384 -1.80528 6.31619 -4.59951 0 0 0 8.12004 61.4228 -2.15998 -5.68264 -5.20344 4.07039 3.91845 -34.2349 0.715948 -2.3796 -5.78657 0.999563 -17.923 4.85693 -16.1027 -15.9393 15.3836 -82.2568 -15.6275 22.8962 4.85503 -1.88858 -0.00481656 0.458961 17.3992 6.43638 22.803 15.9146 14.0684 60.3069 6.6462 17.9514 1.963 -8.34797 -0.0705148 0.966212 96.5119 -46.8602 88.5458 180 43.2254 161.565 14.4676 -46.3332 6.21783 0.535568 -3.01754 -1.5843 -88.3783 -55.791 -89.5128 180 44.0932 -167.03 -29.2522 -42.0123 -11.4448 3.87097 -14.5463 -7.53697 
30.9356 45.6052 8.49089 -1.78145 6.45076 -4.87989 0 0 0 8.15351 61.1634 -2.20028 -6.22303 -4.97469 4.12594 4.24934 -34.5198 0.806054 -2.30346 -5.63532 1.05233 -17.6893 4.82894 -16.1615 -15.8298 15.3632 -82.1427 -15.5525 22.7309 4.84913 -1.6886 -0.00481648 0.556196 17.8504 6.54069 22.7759 15.4895 14.0568 60.6761 6.94583 17.9743 1.63657 -8.42495 -0.0707427 0.960447 96.7517 -46.7306 88.6911 -180 43.2345 162.102 14.3629 -45.7925 6.09223 0.639395 -4.41344 -1.73551 -88.8717 -56.2346 -90.1865 -180 44.1317 -167.436 -29.6835 -41.5824 -11.4908 4.01931 -15.264 -7.45716 
30.9749 45.6158 8.50664 -1.71298 6.28627 -4.80366 0 0 0 7.95067 61.4078 -2.13259 -5.93461 -5.12137 4.02946 4.29876 -34.5905 0.844893 -2.48214 -5.45665 1.11829 -18.1184 4.84906 -15.931 -15.5178 15.3893 -82.1471 -15.594 22.7221 4.84881 -1.65587 -0.00481643 0.620632 17.6749 6.52994 22.9031 14.8035 14.3535 60.8874 7.23768 17.2431 1.43837 -8.6265 -0.0737813 0.97821 96.2478 -46.8313 88.418 -180 43.2276 163.137 15.0219 -45.3094 6.29967 0.956327 -6.30016 -2.91544 -88.691 -55.9705 -89.7282 180 44.054 -166.819 -28.8964 -41.9778 -11.2903 3.8328 -14.3594 -7.51085 
30.9829 45.634 8.49039 -1.95479 6.31354 -4.86582 0 0 0 8.21539 61.4528 -2.19851 -6.01277 -5.14367 4.14467 4.16141 -34.3738 0.852604 -2.50024 -5.77482 1.13432 -17.7516 4.82063 -16.0828 -16.3976 15.3569 -81.7736 -15.2518 23.1616 4.86462 -1.76665 -0.00481639 0.660703 17.5898 6.51365 22.9218 14.6262 14.4109 61.0009 7.32355 17.0758 1.34295 -8.55386 -0.0581825 0.77798 96.5849 -46.6351 88.4254 180 43.2435 162.645 14.8159 -45.587 6.25475 0.862161 -5.5413 -2.5908 -88.269 -56.1548 -89.7169 180 44.1582 -167.347 -29.348 -41.9083 -11.4528 3.92916 -14.8199 -7.29592 
